<svg xmlns="http://www.w3.org/2000/svg" viewBox="0 0 512 512" role="img" aria-labelledby="title desc">
  <title id="title">Bevy Open Siege Icon</title>
  <desc id="desc">A stylized green leaf shield over a dark greenhouse grid.</desc>
  <rect width="512" height="512" rx="96" fill="#102114"/>
  <path d="M82 372h348v42H82zM116 314h280v32H116zM148 256h216v28H148z" fill="#2d5a32"/>
  <path d="M256 70c92 42 148 112 148 198 0 90-62 150-148 176-86-26-148-86-148-176 0-86 56-156 148-198z" fill="#73c947"/>
  <path d="M256 92v328c64-24 108-72 108-148 0-67-38-126-108-180z" fill="#4fa83a"/>
  <path d="M182 292c58-10 98-42 132-112 7 83-32 144-112 177-24 10-49 16-76 18 18-36 36-62 56-83z" fill="#e7f6bb"/>
  <path d="M186 334c42-24 84-62 126-126" stroke="#1d4a29" stroke-width="18" stroke-linecap="round" fill="none"/>
</svg>
